<svg width="830" height="683" xmlns="http://www.w3.org/2000/svg" xmlns:xlink="http://www.w3.org/1999/xlink" xml:space="preserve" overflow="hidden"><defs><clipPath id="clip0"><rect x="453" y="1017" width="830" height="683"/></clipPath></defs><g clip-path="url(#clip0)" transform="translate(-453 -1017)"><path d="M885.328 1561.57C764.655 1684.64 578.034 1697.35 468.499 1589.95" stroke="#A9D18E" stroke-width="27.5" stroke-linecap="butt" stroke-linejoin="miter" stroke-miterlimit="8" stroke-opacity="1" fill="none" fill-rule="evenodd"/><path d="M821.297 1595.74C787.222 1578.66 779.627 1524.85 804.334 1475.55 829.04 1426.25 876.693 1400.12 910.768 1417.2 944.843 1434.27 952.438 1488.08 927.731 1537.39 903.024 1586.69 855.372 1612.81 821.297 1595.74Z" fill="#FFFFFF" fill-rule="evenodd" fill-opacity="1"/><path d="M1180.64 1477.5C1162.18 1510.85 1108.1 1516.23 1059.86 1489.52 1011.61 1462.81 987.468 1414.12 1005.93 1380.78 1024.39 1347.43 1078.47 1342.05 1126.71 1368.76 1174.96 1395.47 1199.1 1444.16 1180.64 1477.5Z" fill="#FFFFFF" fill-rule="evenodd" fill-opacity="1"/><path d="M878.266 1328.92C859.805 1362.27 805.728 1367.65 757.482 1340.94 709.237 1314.23 685.091 1265.54 703.552 1232.2 722.013 1198.85 776.089 1193.47 824.335 1220.18 872.581 1246.89 896.726 1295.58 878.266 1328.92Z" fill="#FFFFFF" fill-rule="evenodd" fill-opacity="1"/><path d="M981.149 1301.2C947.074 1284.12 939.479 1230.31 964.186 1181.01 988.893 1131.71 1036.54 1105.59 1070.62 1122.66 1104.7 1139.74 1112.29 1193.55 1087.58 1242.85 1062.88 1292.15 1015.22 1318.28 981.149 1301.2Z" fill="#FFFFFF" fill-rule="evenodd" fill-opacity="1"/><path d="M1011.57 1149.35C991.435 1150.03 966.67 1161.91 961.068 1185.41 955.467 1208.91 958.68 1281.43 977.957 1290.34 997.235 1299.24 1059.42 1257.01 1076.73 1238.85 1094.05 1220.68 1092.72 1196.26 1081.86 1181.34 1071 1166.42 1031.7 1148.67 1011.57 1149.35ZM1138.87 1064.64C1149.29 1067.54 1159.52 1076.21 1171.48 1093.36 1179.61 1105 1187.59 1118.81 1194.66 1133.87 1201.73 1148.93 1207.88 1165.2 1212.39 1181.54 1219.51 1207.35 1210.89 1235.87 1186.96 1246.98 1152.94 1261.44 1118.93 1275.91 1084.92 1290.37L951.036 1344.98 861.68 1133.18C849.777 1107.52 861.456 1083.89 884.695 1065.48 915.898 1040.72 937.06 1031.34 974.466 1023.84 1007.08 1017.25 1032.93 1032.55 1044.83 1058.21L1060.63 1086.62C1070.67 1088.67 1092.05 1074.18 1105.09 1070.52 1118.13 1066.85 1128.45 1061.74 1138.87 1064.64Z" stroke="#385723" stroke-width="4.58333" stroke-linecap="butt" stroke-linejoin="miter" stroke-miterlimit="8" stroke-opacity="1" fill="#C5E0B4" fill-rule="evenodd" fill-opacity="1"/><path d="M1152.64 1415.57C1151.29 1395.47 1138.57 1371.12 1114.9 1366.31 1091.23 1361.51 1018.85 1367.16 1010.6 1386.72 1002.35 1406.29 1046.65 1467.01 1065.38 1483.71 1084.12 1500.41 1108.49 1498.25 1123.03 1486.9 1137.57 1475.54 1154 1435.67 1152.64 1415.57ZM1241.58 1539.95C1239.03 1550.46 1230.71 1560.98 1213.98 1573.51 1202.62 1582.03 1189.08 1590.46 1174.26 1598.04 1159.45 1605.61 1143.4 1612.31 1127.22 1617.37 1101.67 1625.35 1072.87 1617.7 1060.96 1594.14 1045.36 1560.64 1029.76 1527.13 1014.16 1493.62L955.08 1361.65 1163.76 1265.22C1189 1252.47 1213.01 1263.34 1232.19 1285.95 1257.99 1316.3 1268.08 1337.14 1276.83 1374.27 1284.52 1406.64 1270.09 1432.99 1244.84 1445.75L1216.98 1462.49C1215.27 1472.6 1230.47 1493.48 1234.57 1506.39 1238.67 1519.3 1244.13 1529.44 1241.58 1539.95Z" stroke="#385723" stroke-width="4.58333" stroke-linecap="butt" stroke-linejoin="miter" stroke-miterlimit="8" stroke-opacity="1" fill="#BDD7EE" fill-rule="evenodd" fill-opacity="1"/><path d="M873.155 1569.27C893.297 1569.06 918.332 1557.75 924.479 1534.39 930.626 1511.03 929.103 1438.46 910.038 1429.1 890.973 1419.75 827.824 1460.52 810.09 1478.28 792.355 1496.04 793.118 1520.48 803.629 1535.65 814.14 1550.82 853.013 1569.48 873.155 1569.27ZM743.914 1650.99C733.564 1647.85 723.543 1638.94 711.978 1621.52 704.122 1609.7 696.472 1595.7 689.753 1580.48 683.033 1565.26 677.261 1548.85 673.133 1532.41 666.615 1506.44 675.895 1478.13 700.085 1467.58 734.425 1453.91 768.765 1440.25 803.105 1426.58L938.224 1375.1 1022.62 1588.92C1033.93 1614.85 1021.7 1638.2 998.039 1656.07 966.268 1680.1 944.893 1688.98 907.323 1695.61 874.567 1701.44 849.077 1685.54 837.775 1659.61L822.648 1630.84C812.655 1628.55 790.943 1642.54 777.821 1645.9 764.699 1649.26 754.264 1654.13 743.914 1650.99Z" stroke="#385723" stroke-width="4.58333" stroke-linecap="butt" stroke-linejoin="miter" stroke-miterlimit="8" stroke-opacity="1" fill="#A9D18E" fill-rule="evenodd" fill-opacity="1"/><path d="M729.419 1290.41C729.879 1310.55 741.497 1335.44 764.933 1341.29 788.369 1347.15 860.921 1344.72 870.036 1325.54 879.15 1306.36 837.596 1243.73 819.619 1226.22 801.641 1208.7 777.204 1209.77 762.171 1220.47 747.138 1231.17 728.959 1270.27 729.419 1290.41ZM646.098 1162.2C649.112 1151.81 657.888 1141.68 675.164 1129.9 686.891 1121.89 700.792 1114.07 715.927 1107.16 731.062 1100.25 747.396 1094.28 763.781 1089.94 789.668 1083.1 818.098 1092.03 828.944 1116.09 843.039 1150.25 857.134 1184.42 871.228 1218.59L924.387 1353.05 711.629 1440.11C685.845 1451.74 662.341 1439.8 644.187 1416.37 619.763 1384.9 610.612 1363.63 603.514 1326.15 597.276 1293.47 612.863 1267.78 638.648 1256.16L667.228 1240.67C669.388 1230.65 655.129 1209.12 651.607 1196.04 648.086 1182.96 643.084 1172.58 646.098 1162.2Z" stroke="#385723" stroke-width="4.58333" stroke-linecap="butt" stroke-linejoin="miter" stroke-miterlimit="8" stroke-opacity="1" fill="#FFE699" fill-rule="evenodd" fill-opacity="1"/></g></svg>